<svg version="1.1" id="Layer_1" xmlns="http://www.w3.org/2000/svg" xmlns:xlink="http://www.w3.org/1999/xlink" x="0px" y="0px"
	 width="100%" viewBox="0 0 500 500" enable-background="new 0 0 500 500" xml:space="preserve">

<path fill="#02F1F1" opacity="1.000000" stroke="none" 
	d="
M111.905930,153.973587 
	C111.905907,144.662811 111.905907,135.847046 111.905907,126.746567 
	C113.243835,126.547356 114.337425,126.245399 115.431747,126.242737 
	C128.922089,126.209892 142.412628,126.243736 155.902924,126.200256 
	C158.488998,126.191925 160.775894,126.222961 159.490738,130.334045 
	C147.655716,130.334045 135.727448,130.334045 123.338196,130.334045 
	C123.200066,132.165359 123.004921,133.580338 123.000900,134.995850 
	C122.974388,144.322495 123.142235,153.652512 122.943024,162.974945 
	C122.775826,170.799561 125.562431,177.160126 131.059052,182.632584 
	C152.998352,204.475494 174.857025,226.399384 196.759674,248.279144 
	C197.463669,248.982422 198.321259,249.531921 199.629807,250.566162 
	C192.979843,257.263519 186.727814,263.597443 180.434998,269.890533 
	C164.309280,286.016907 148.243301,302.204285 131.989166,318.200317 
	C125.805008,324.286316 122.610161,331.235229 122.919815,340.011078 
	C123.229454,348.786133 122.987785,357.580597 122.987785,366.655823 
	C119.249931,366.655823 115.992279,366.655823 112.237885,366.655823 
	C112.132263,365.307434 111.929100,363.885925 111.924446,362.463745 
	C111.894455,353.303711 112.051430,344.140533 111.864265,334.984192 
	C111.697098,326.805725 114.678757,320.203064 120.443550,314.479950 
	C141.480011,293.595703 162.388275,272.582336 183.369461,251.642258 
	C184.895233,250.119492 186.617798,248.793884 189.062622,246.669571 
	C180.866821,238.674286 173.129623,231.237808 165.516693,223.676208 
	C150.279251,208.541534 135.204758,193.241577 119.868919,178.207825 
	C113.059952,171.532974 111.336006,163.461258 111.905930,153.973587 
z"/>
<path fill="#F101F1" opacity="1.000000" stroke="none" 
	d="
M370.894409,134.893951 
	C373.727478,134.641296 375.042236,135.219910 375.000702,138.077011 
	C374.843384,148.907425 375.025177,159.743195 374.831390,170.572495 
	C374.707367,177.502625 370.974457,182.768555 366.235168,187.494659 
	C344.883667,208.786545 323.584259,230.130630 302.219727,251.409378 
	C301.060181,252.564285 299.481232,253.298111 297.486420,254.638657 
	C308.578369,265.597046 318.646515,275.490082 328.653778,285.444305 
	C341.411041,298.133942 354.088684,310.903778 366.862579,323.576569 
	C372.362915,329.033325 375.123474,335.446960 374.989349,343.268311 
	C374.809601,353.749756 374.944855,364.236603 374.944855,375.019592 
	C359.008667,375.019592 343.400330,375.019592 327.779907,375.019592 
	C327.052704,371.447327 327.052002,371.343719 330.646088,371.319641 
	C339.978577,371.257141 349.311737,371.305023 358.644562,371.282379 
	C360.260254,371.278442 361.875610,371.145111 363.677277,371.063110 
	C363.677277,358.425690 363.958832,346.131805 363.560120,333.860046 
	C363.356537,327.593872 359.446228,322.806641 355.083832,318.462341 
	C334.314392,297.779053 313.613495,277.026978 292.864716,256.322937 
	C291.220947,254.682709 289.397736,253.222351 286.882233,250.990067 
	C292.562744,245.503754 297.846466,240.533218 302.983337,235.415283 
	C320.329529,218.133011 337.546051,200.719788 354.979126,183.525955 
	C361.169861,177.420166 364.324188,170.449036 364.020325,161.680237 
	C363.720825,153.037369 363.954956,144.375992 363.954956,134.893723 
	C366.269257,134.893723 368.345764,134.893723 370.894409,134.893951 
z"/>
<path fill="#02F0F0" opacity="1.000000" stroke="none" 
	d="
M238.364563,215.945618 
	C251.396973,203.097076 264.452271,190.271637 277.453461,177.391586 
	C285.614105,169.306946 293.793976,161.236115 301.721527,152.926575 
	C303.239197,151.335785 304.283447,148.695114 304.400146,146.478485 
	C304.747681,139.877014 304.524811,133.245529 304.524811,126.221283 
	C320.074127,126.221283 335.028290,126.168503 349.979919,126.338943 
	C350.986572,126.350418 351.973999,128.047333 352.970367,128.960358 
	C352.681091,129.424026 352.391815,129.887711 352.102509,130.351379 
	C340.178772,130.351379 328.255035,130.351379 315.547638,130.351379 
	C315.547638,136.707184 315.330566,142.638290 315.622070,148.544296 
	C315.824738,152.650909 314.663757,155.610382 311.646454,158.595917 
	C288.935333,181.067947 266.425751,203.743622 243.405029,226.804596 
	C240.852982,224.112823 238.493988,221.624695 236.284302,218.675293 
	C237.077271,217.457901 237.720932,216.701752 238.364563,215.945618 
z"/>
<path fill="#F301F2" opacity="1.000000" stroke="none" 
	d="
M246.324615,285.128662 
	C245.395172,286.799500 244.784729,288.786804 243.488388,290.093719 
	C224.138611,309.601318 204.649857,328.971405 185.366409,348.543915 
	C183.733826,350.200958 182.634277,353.028107 182.491882,355.384460 
	C182.102753,361.824219 182.357941,368.302917 182.357941,375.313599 
	C171.194397,375.313599 160.420242,375.313751 149.646072,375.313507 
	C145.814590,375.313416 141.972855,375.470978 138.157318,375.224060 
	C136.858765,375.139984 135.626175,374.036407 134.363434,373.398682 
	C135.589188,372.698883 136.803650,371.416473 138.042526,371.392395 
	C147.034805,371.217926 156.031998,371.297150 165.027634,371.296234 
	C166.845612,371.296051 168.663605,371.296234 171.259033,371.296234 
	C171.259033,364.297668 171.132706,357.542114 171.343369,350.797058 
	C171.399597,348.996826 171.979294,346.723999 173.175949,345.520721 
	C195.250473,323.324127 217.455276,301.257111 240.183899,279.218750 
	C242.598358,281.226105 244.461487,283.177399 246.324615,285.128662 
z"/>
<path fill="#04ECEC" opacity="1.000000" stroke="none" 
	d="
M246.651794,285.385254 
	C244.461487,283.177399 242.598358,281.226105 240.498108,279.058777 
	C241.144333,277.684692 242.027695,276.526611 243.363495,274.775421 
	C251.956558,283.449341 260.196503,291.815308 268.490051,300.127747 
	C283.194550,314.865662 297.994843,329.509094 312.566315,344.377075 
	C314.191437,346.035309 315.231598,348.838806 315.430756,351.204803 
	C315.859100,356.293335 315.562256,361.442932 315.562256,366.760956 
	C311.695282,366.760956 308.409332,366.760956 304.524689,366.760956 
	C304.524689,360.039337 304.637787,353.412903 304.451691,346.794830 
	C304.399811,344.950623 304.026855,342.571869 302.848145,341.384186 
	C284.317139,322.712036 265.630127,304.194733 246.651794,285.385254 
z"/>
<path fill="#E901E8" opacity="1.000000" stroke="none" 
	d="
M238.214752,215.568817 
	C237.720932,216.701752 237.077271,217.457901 236.179321,218.377563 
	C225.808197,208.672455 215.635178,198.860596 205.589996,188.919556 
	C195.051041,178.489883 184.548141,168.019821 174.254135,157.350662 
	C172.633026,155.670471 171.561157,152.900711 171.350693,150.535492 
	C170.911575,145.600266 171.217789,140.598709 171.217789,135.250977 
	C174.991287,135.250977 178.388901,135.250977 182.389679,135.250977 
	C182.389679,141.142700 182.681778,147.108978 182.293640,153.030655 
	C182.003586,157.455933 183.655838,160.430893 186.708908,163.437057 
	C202.851425,179.331558 218.815643,195.407242 234.821060,211.440689 
	C235.985977,212.607635 236.987457,213.937759 238.214752,215.568817 
z"/>
</svg>